<!DOCTYPE svg PUBLIC "-//W3C//DTD SVG 1.1//EN" "http://www.w3.org/Graphics/SVG/1.1/DTD/svg11.dtd">
<!-- Uploaded to: SVG Repo, www.svgrepo.com, Transformed by: SVG Repo Mixer Tools -->
<svg fill="#2661AB" width="800px" height="800px" viewBox="0 0 512 512" enable-background="new 0 0 512 512" id="Yearly_x5F_vaccines" version="1.1" xml:space="preserve" xmlns="http://www.w3.org/2000/svg" xmlns:xlink="http://www.w3.org/1999/xlink" stroke="#2661AB">
<g id="SVGRepo_bgCarrier" stroke-width="0"/>
<g id="SVGRepo_tracerCarrier" stroke-linecap="round" stroke-linejoin="round"/>
<g id="SVGRepo_iconCarrier"> <g> <g> <path d="M43.333,372.226v58.347H22.958v25.355h66.269v-25.355H68.854v-58.347h9.955h13.525v-10H78.809V192.097v-10v-19.479h-7.086 v-33.393H61.093v-64h-10v64H40.464v33.393h-7.086v29.479h0v170.129H19.853v10h13.525H43.333z M79.228,440.572v5.355H32.958v-5.355 h10.374h25.521H79.228z M58.854,430.572h-5.521v-58.347h5.521V430.572z M43.377,172.618h25.431v9.479H43.377V172.618z M50.464,139.226h11.258v23.393H50.464V139.226z M68.809,192.097v29.917H53v10h15.809v15.074h-8.834v9.999h8.834v15.074H53v10 h15.809v15.074h-8.834v10h8.834v15.073H53v10h15.809v29.917H43.378V192.097H68.809z"/> <path d="M421.219,427.824l70.928-70.929V147.717V86.531h-63.352c-1.316-17.015-15.57-30.459-32.916-30.459 c-11.811,0-22.188,6.235-28.027,15.583c-5.838-9.348-16.215-15.583-28.025-15.583s-22.188,6.235-28.026,15.583 c-5.839-9.348-16.216-15.583-28.026-15.583c-11.648,0-21.899,6.066-27.781,15.2c-5.881-9.134-16.132-15.2-27.78-15.2 c-17.346,0-31.601,13.444-32.917,30.459h-62.66v28.109h-28.623v341.287h359.517v-45.202h-10v35.202H114.012V179.563h18.623 v248.261H421.219z M424.146,410.753v-50.929h50.93L424.146,410.753z M482.146,155.319h-51.848v10h51.848v184.505h-68v68H142.635 V165.319h271.929v-10H142.635v-7.603h339.511V155.319z M395.879,66.072c11.828,0,21.598,8.967,22.879,20.459h-45.76 C374.279,75.039,384.05,66.072,395.879,66.072z M339.826,66.072c11.828,0,21.598,8.967,22.879,20.459h-45.759 C318.228,75.039,327.998,66.072,339.826,66.072z M283.773,66.072c11.828,0,21.599,8.967,22.88,20.459h-45.524 c-0.027-0.354-0.055-0.708-0.094-1.059C262.779,74.492,272.311,66.072,283.773,66.072z M228.212,66.072 c11.462,0,20.993,8.42,22.738,19.4c-0.039,0.351-0.066,0.704-0.094,1.059h-45.524C206.614,75.039,216.384,66.072,228.212,66.072z M142.635,96.531h53.405c3.382,14.642,16.518,25.593,32.172,25.593v-10c-10.096,0-18.689-6.534-21.788-15.593h45.177 c3.382,14.642,16.518,25.593,32.172,25.593v-10c-10.096,0-18.689-6.534-21.788-15.593h45.669 c3.382,14.642,16.518,25.593,32.172,25.593v-10c-10.096,0-18.689-6.534-21.788-15.593h45.668 c3.382,14.642,16.518,25.593,32.173,25.593v-10c-10.097,0-18.689-6.534-21.789-15.593h108.057v41.186H142.635V96.531z M114.012,169.563v-44.923h18.623v23.076v21.847H114.012z"/> <path d="M381.93,270.607c2.297,7.134,3.461,14.612,3.461,22.228c0,40.253-32.748,73-73,73c-40.253,0-73-32.747-73-73 c0-40.252,32.748-72.999,73-72.999c22.166,0,42.876,9.903,56.819,27.171l7.78-6.282c-15.852-19.63-39.396-30.889-64.6-30.889 c-45.767,0-83,37.233-83,82.999c0,45.767,37.234,83,83,83c45.766,0,83-37.233,83-83c0-8.656-1.326-17.166-3.941-25.291 L381.93,270.607z"/> <path d="M312.391,347.855c-30.333,0-55.011-24.682-55.011-55.021c0-30.332,24.678-55.009,55.011-55.009 c17.294,0,33.242,7.893,43.756,21.655l7.947-6.07c-12.422-16.26-31.267-25.585-51.703-25.585 c-35.848,0-65.011,29.163-65.011,65.009c0,35.853,29.163,65.021,65.011,65.021c35.852,0,65.02-29.168,65.02-65.021 c0-3.1-0.223-6.229-0.66-9.305l-9.9,1.41c0.372,2.609,0.561,5.266,0.561,7.895C367.41,323.174,342.729,347.855,312.391,347.855z"/> <polygon points="307.845,321.501 278.969,292.625 271.897,299.696 307.845,335.644 416.439,227.05 409.367,219.979 "/> <rect height="10" width="59" x="163" y="186.663"/> </g> </g> </g>
</svg>