<!DOCTYPE svg PUBLIC "-//W3C//DTD SVG 1.1//EN" "http://www.w3.org/Graphics/SVG/1.1/DTD/svg11.dtd">
<!-- Uploaded to: SVG Repo, www.svgrepo.com, Transformed by: SVG Repo Mixer Tools -->
<svg fill="#2661AB" height="800px" width="800px" version="1.1" id="Layer_1" xmlns="http://www.w3.org/2000/svg" xmlns:xlink="http://www.w3.org/1999/xlink" viewBox="0 0 512 512" xml:space="preserve">
<g id="SVGRepo_bgCarrier" stroke-width="0"/>
<g id="SVGRepo_tracerCarrier" stroke-linecap="round" stroke-linejoin="round"/>
<g id="SVGRepo_iconCarrier"> <g> <g> <path d="M503.399,233.763h-42.756c8.436-28.251,7.024-48.446,6.44-56.745c-0.045-0.632-0.085-1.197-0.116-1.696 c-1.325-21.756-7.968-42.722-19.211-60.636c-2.527-4.024-7.834-5.235-11.858-2.712c-4.023,2.525-5.238,7.834-2.712,11.858 c9.717,15.48,15.46,33.647,16.61,52.537c0.033,0.549,0.077,1.17,0.126,1.862c0.612,8.669,1.963,27.972-7.255,55.533H305.642 c-2.281,0-4.468,0.906-6.083,2.518l-50.795,50.796V162.636c0-3.787-2.476-7.128-6.098-8.23c-3.627-1.099-7.539,0.296-9.647,3.439 l-55.452,82.715h-50.683c-4.75,0-8.601,3.85-8.601,8.601s3.851,8.601,8.601,8.601h55.271c2.868,0,5.547-1.429,7.145-3.811 l42.264-63.041v116.93c0,3.478,2.095,6.616,5.31,7.947c1.064,0.442,2.181,0.655,3.289,0.655c2.239,0,4.438-0.874,6.085-2.518 l62.96-62.96h126.706c-2.139,4.756-4.57,9.69-7.365,14.812c-31.092,56.966-92.565,113.03-182.739,166.674 C155.636,378.807,94.163,322.743,63.07,265.777c-1.485-2.723-2.869-5.392-4.164-8.012h39.789c4.751,0,8.601-3.85,8.601-8.601 s-3.85-8.601-8.601-8.601H51.379c-11.873-31.192-10.35-52.967-9.689-62.332c0.049-0.694,0.093-1.314,0.126-1.862 c3.411-55.988,45.414-98.209,97.701-98.209c26.96,0,52.046,10.739,70.664,30.242l29.039,34.544 c1.635,1.944,4.044,3.067,6.584,3.067c2.54,0,4.95-1.123,6.584-3.067l29.038-34.544c18.618-19.506,43.702-30.242,70.664-30.242 c24.429,0,46.755,8.83,64.56,25.537c3.465,3.25,8.909,3.076,12.159-0.388c3.25-3.465,3.077-8.909-0.388-12.159 c-20.751-19.47-47.859-30.193-76.328-30.193c-31.809,0-61.398,12.708-83.314,35.783c-0.119,0.126-0.235,0.256-0.347,0.389 l-22.626,26.917l-22.627-26.917c-0.112-0.133-0.228-0.263-0.347-0.389c-21.916-23.075-51.505-35.783-83.315-35.783 c-61.517,0-110.9,49.167-114.873,114.366c-0.03,0.5-0.071,1.065-0.116,1.696c-0.632,8.95-2.231,31.732,8.609,63.543H8.601 c-4.751,0-8.601,3.85-8.601,8.601s3.85,8.601,8.601,8.601h31.316c2.338,5.24,4.996,10.658,8.05,16.254 c33.104,60.652,98.2,119.814,193.479,175.839c1.346,0.791,2.852,1.187,4.36,1.187c1.507,0,3.014-0.396,4.36-1.187 c95.279-56.027,160.374-115.187,193.478-175.839c4.397-8.055,7.991-15.751,10.947-23.054h48.808c4.751,0,8.601-3.85,8.601-8.601 C512,237.614,508.15,233.763,503.399,233.763z"/> </g> </g> </g>
</svg>